PathFileType	4	(X/Y/Z)	/Users/niels/Desktop/University/Third Semester/Perception and Action/Exam/Gymnastics Motion Tracking/Code for Gym Tracking/Analyzed Data/Webcam_Backflip/id3_2_trajectory_Sports2D/id3_2_trajectory_Sports2D_px_person00.trc
DataRate	CameraRate	NumFrames	NumMarkers	Units	OrigDataRate	OrigDataStartFrame	OrigNumFrames
29.714285714285715	29.714285714285715	7	22	m	29.714285714285715	78	105
Frame#	Time	Hip			RHip			RKnee			RAnkle			RBigToe			RSmallToe			RHeel			LHip			LKnee			LAnkle			LBigToe			LSmallToe			LHeel			Neck			Head			Nose			RShoulder			RElbow			RWrist			LShoulder			LElbow			LWrist		
		X1	Y1	Z1	X2	Y2	Z2	X3	Y3	Z3	X4	Y4	Z4	X5	Y5	Z5	X6	Y6	Z6	X7	Y7	Z7	X8	Y8	Z8	X9	Y9	Z9	X10	Y10	Z10	X11	Y11	Z11	X12	Y12	Z12	X13	Y13	Z13	X14	Y14	Z14	X15	Y15	Z15	X16	Y16	Z16	X17	Y17	Z17	X18	Y18	Z18	X19	Y19	Z19	X20	Y20	Z20	X21	Y21	Z21	X22	Y22	Z22
78	2.625	0.9626143338397417	-0.5858219200105186	0.0	0.9595621202119287	-0.5920169308982266	0.0	0.9280162452704412	-0.7382399737909024	0.0	0.891954091330361	-0.866235146957889	0.0	0.9409737263098475	-0.9176318090792637	0.0	0.9181619259297893	-0.6526293267499373	0.0	0.8811716601516294	-0.8720343811606079	0.0	0.9643347932462069	-0.5815835973521025	0.0	0.9343004252373892	-0.7235891352659383	0.0	0.9158520162163495	-0.8386299309113479	0.0	0.9431238723343793	-0.8661065698785909	0.0	0.9328435660079415	-0.8618769270252706	0.0	0.9027402701612808	-0.8413960701193255	0.0	1.1177484984075376	-0.5425402245535683	0.0	1.2106268239606224	-0.5292223821454624	0.0	1.17149114536114	-0.5641778852269274	0.0	1.098305100542535	-0.5498284764414346	0.0	1.0821762553812415	-0.6279666584872693	0.0	1.0843468745305351	-0.6910133561257664	0.0	1.1021655584972152	-0.5308977734864049	0.0	1.0838442171803753	-0.6151736018403094	0.0	1.0864969364167125	-0.6799773734684684	0.0
79	2.658653846153846	0.9526763162570228	-0.6405173293386934	0.0	0.9513943257122005	-0.6455725575014618	0.0	0.9321220313288296	-0.7961568906091517	0.0	0.9058255936081416	-0.9240592048066371	0.0	0.9597052592873067	-0.9636631008050325	0.0	0.9343704741075289	-0.5880837703398814	0.0	0.896625205733401	-0.9270882819165378	0.0	0.9542317143399156	-0.637483826633042	0.0	0.9391263003891019	-0.7834968905867965	0.0	0.925833835926594	-0.9034502831556396	0.0	0.962646532363174	-0.9003583890956339	0.0	0.9513744631154422	-0.9002404927228905	0.0	0.9149306588619426	-0.9007806891325995	0.0	1.0946208563248252	-0.549352108636436	0.0	1.1825684157965988	-0.5122856586647258	0.0	1.1522311274280193	-0.5580535507554671	0.0	1.0794372981971367	-0.5605953766942678	0.0	1.0988322581610563	-0.6354929773015107	0.0	1.1296766905740243	-0.6888034766563909	0.0	1.076662173517731	-0.5425417186637708	0.0	1.0967723094063024	-0.6231953929268162	0.0	1.1275921643404445	-0.6790470724364788	0.0
80	2.692307692307692	0.947409727696896	-0.6901258380501938	0.0	0.9478561225139706	-0.6938705627138101	0.0	0.9343606510484077	-0.8446992980996734	0.0	0.912707399768893	-0.9683396275080645	0.0	0.9697242494245084	-0.9926604766929951	0.0	0.9425784491930722	-0.5476194487089456	0.0	0.9042845722787606	-0.9668361108802744	0.0	0.9485666801973948	-0.68796360191851	0.0	0.9410594935449332	-0.8337080536374357	0.0	0.9268442997061956	-0.9541217082176511	0.0	0.9731988163543044	-0.9210727707227334	0.0	0.9610506598054966	-0.925180201792796	0.0	0.918090867514963	-0.9449687352574017	0.0	1.0686831061060487	-0.5591118969777715	0.0	1.1477464222867542	-0.5017831015276079	0.0	1.1272621496849047	-0.5557345962043901	0.0	1.0578210158911014	-0.572965024394287	0.0	1.1094465413564556	-0.6330659742231074	0.0	1.163604911526337	-0.6680129497534669	0.0	1.0494902683819087	-0.5574637218301316	0.0	1.1036053034882871	-0.6218498273519031	0.0	1.1578571476433206	-0.660209748985084	0.0
81	2.7259615384615383	0.9458669592242557	-0.7292408811337295	0.0	0.9477343490221998	-0.7316298659577708	0.0	0.9355417227129101	-0.880307839396945	0.0	0.9149423120002267	-0.998195934580532	0.0	0.9740138106869072	-1.0059942234072365	0.0	0.946597554564416	-0.5564841441050653	0.0	0.9066519692604194	-0.9919752574428963	0.0	0.9462085560775455	-0.7274067844676074	0.0	0.9407159036613346	-0.8705829496944478	0.0	0.9230503288623622	-0.9884432488873555	0.0	0.9775596625959673	-0.9328363107683559	0.0	0.964549651354713	-0.9402131698943004	0.0	0.9157965455423597	-0.9738075039052726	0.0	1.0433771635922893	-0.5683586188373494	0.0	1.1114025147182554	-0.4960036711171978	0.0	1.10034610886503	-0.5547417710542595	0.0	1.0363003587771427	-0.5837307886402231	0.0	1.1124667480812875	-0.6220655618816443	0.0	1.1821010856210672	-0.6340573089841213	0.0	1.0239306534808554	-0.5720595601352698	0.0	1.1032374117388857	-0.6123094562970445	0.0	1.173600506913793	-0.628825746285717	0.0
82	2.7596153846153846	0.9470323101046813	-0.7539669995660395	0.0	0.9497830460425644	-0.7550584898056543	0.0	0.9368984267442637	-0.9001703374766103	0.0	0.9150822311072827	-1.0131130649900344	0.0	0.9753726702506346	-1.007392262135372	0.0	0.9494954011643009	-0.6141977438120508	0.0	0.9067567760373941	-1.0036328049676346	0.0	0.9462351604024463	-0.7519168814552416	0.0	0.9399746339472986	-0.8912730266453155	0.0	0.9183452796732756	-1.005434871600276	0.0	0.9786687743318148	-0.9392894096435802	0.0	0.9649854909937493	-0.948299590168023	0.0	0.911446147719738	-0.9881773623981857	0.0	1.0213069151996492	-0.5728264773379141	0.0	1.0779291570007352	-0.49086405110831166	0.0	1.0746672161604496	-0.5510989175675921	0.0	1.0171522511965518	-0.5891729401878996	0.0	1.1085175242107819	-0.6046519258676778	0.0	1.1859748984356726	-0.5936130911636248	0.0	1.0023943727686524	-0.5817338917808146	0.0	1.0968562523868084	-0.596299641412226	0.0	1.1756670606449773	-0.591298094576865	0.0
83	2.793269230769231	0.9501765758191643	-0.7625256915558791	0.0	0.953059811530949	-0.762510864366245	0.0	0.9392762667968008	-0.9030913098823766	0.0	0.9148680552076819	-1.013526825273115	0.0	0.97568601551074	-1.0006346206244658	0.0	0.9526464959139423	-0.7016272160193527	0.0	0.9067051234794891	-1.0036445235674476	0.0	0.9483234804215337	-0.7598967255851451	0.0	0.9408377868859976	-0.8945411923350433	0.0	0.9154225653501719	-1.0056038285613706	0.0	0.9787275094525276	-0.9420995226434634	0.0	0.9648770119565688	-0.9508670784862193	0.0	0.9075212689781226	-0.9897241402152942	0.0	1.0038459888609252	-0.5688242196513393	0.0	1.049790634115238	-0.48145090730879286	0.0	1.0521120521960206	-0.5408131355377509	0.0	1.0014895933650643	-0.5862005415484197	0.0	1.0998529316242474	-0.5827526031733499	0.0	1.1796858862093134	-0.5522974451395033	0.0	0.9862248676924895	-0.5823899336655145	0.0	1.0871706788154	-0.5752767950625516	0.0	1.1683612459642465	-0.552686162935185	0.0
84	2.8269230769230766	0.954770791821503	-0.7552366112772193	0.0	0.9569531495372385	-0.7544710175048028	0.0	0.9427867392263924	-0.8900176819136457	0.0	0.9152131137750188	-1.000999148409515	0.0	0.9758992682643026	-0.9880282432383918	0.0	0.9561029149760008	-0.7933666527980721	0.0	0.9073898136282854	-0.9939780065355439	0.0	0.9524555496208389	-0.7519863969558638	0.0	0.9442956223716975	-0.8815106756984583	0.0	0.9153533823471762	-0.9911427818729326	0.0	0.9789383685858726	-0.9410449605805906	0.0	0.9657117385940414	-0.9478108707843758	0.0	0.9055087898409453	-0.9803800540678019	0.0	0.9912342801412408	-0.5542983811998391	0.0	1.0275568612118684	-0.46398061051658246	0.0	1.0332418834754105	-0.5213119186356745	0.0	0.9892309865343253	-0.5731304547922716	0.0	1.0890416708981878	-0.5576439079041379	0.0	1.168627704669224	-0.5135156243579749	0.0	0.9759781264338712	-0.5717176244595247	0.0	1.0771202537211015	-0.5502948419320771	0.0	1.1570303565309046	-0.5158167493057366	0.0
